<?xml version="1.0" encoding="UTF-8"?><svg xmlns="http://www.w3.org/2000/svg" xmlns:xlink="http://www.w3.org/1999/xlink" contentStyleType="text/css" height="861px" preserveAspectRatio="none" style="width:1922px;height:861px;background:#FFFFFF;" version="1.1" viewBox="0 0 1922 861" width="1922px" zoomAndPan="magnify">
    <defs/>
    <g>
        <!--cluster WebMap-->
        <g id="cluster_WebMap">
            <path d="M8.5,6 L70.5,6 A3.75,3.75 0 0 1 73,8.5 L80,29.6094 L1912.5,29.6094 A2.5,2.5 0 0 1 1915,32.1094 L1915,851.5 A2.5,2.5 0 0 1 1912.5,854 L8.5,854 A2.5,2.5 0 0 1 6,851.5 L6,8.5 A2.5,2.5 0 0 1 8.5,6 " fill="none" style="stroke:#000000;stroke-width:1.5;"/>
            <line style="stroke:#000000;stroke-width:1.5;" x1="6" x2="80" y1="29.6094" y2="29.6094"/>
            <text fill="#000000" font-family="sans-serif" font-size="14" font-weight="bold" lengthAdjust="spacing" textLength="61" x="10" y="22.5332">WebMap</text>
        </g>
        <!--class ProvinceView-->
        <g id="elem_ProvinceView">
            <rect codeLine="5" fill="#F1F1F1" height="83.2188" id="ProvinceView" rx="2.5" ry="2.5" style="stroke:#181818;stroke-width:0.5;" width="301" x="1597.5" y="42"/>
            <ellipse cx="1701.75" cy="58" fill="#ADD1B2" rx="11" ry="11" style="stroke:#181818;stroke-width:1.0;"/>
            <path d="M1704.5156,53.875 Q1704.6719,53.6563 1704.8594,53.5469 Q1705.0469,53.4375 1705.2656,53.4375 Q1705.6406,53.4375 1705.875,53.7031 Q1706.1094,53.9531 1706.1094,54.5625 L1706.1094,56.0156 Q1706.1094,56.625 1705.875,56.8906 Q1705.6406,57.1563 1705.2656,57.1563 Q1704.9219,57.1563 1704.7188,56.9531 Q1704.5156,56.7656 1704.4063,56.25 Q1704.3594,55.8906 1704.1719,55.7031 Q1703.8438,55.3281 1703.2344,55.1094 Q1702.625,54.8906 1702,54.8906 Q1701.2344,54.8906 1700.5938,55.2188 Q1699.9688,55.5469 1699.4688,56.2969 Q1698.9844,57.0469 1698.9844,58.0781 L1698.9844,59.1719 Q1698.9844,60.4063 1699.875,61.2344 Q1700.7656,62.0469 1702.3594,62.0469 Q1703.2969,62.0469 1703.9531,61.7969 Q1704.3438,61.6406 1704.7656,61.2031 Q1705.0313,60.9375 1705.1719,60.8594 Q1705.3281,60.7813 1705.5313,60.7813 Q1705.8594,60.7813 1706.1094,61.0469 Q1706.375,61.2969 1706.375,61.6406 Q1706.375,61.9844 1706.0313,62.3906 Q1705.5313,62.9688 1704.7344,63.2969 Q1703.6563,63.75 1702.3594,63.75 Q1700.8438,63.75 1699.6406,63.125 Q1698.6563,62.625 1697.9688,61.5625 Q1697.2813,60.4844 1697.2813,59.2031 L1697.2813,58.0469 Q1697.2813,56.7188 1697.8906,55.5781 Q1698.5156,54.4219 1699.6094,53.8125 Q1700.7031,53.1875 1701.9375,53.1875 Q1702.6719,53.1875 1703.3125,53.3594 Q1703.9688,53.5156 1704.5156,53.875 Z " fill="#000000"/>
            <text fill="#000000" font-family="sans-serif" font-size="14" lengthAdjust="spacing" textLength="84" x="1722.25" y="63.7285">ProvinceView</text>
            <line style="stroke:#181818;stroke-width:0.5;" x1="1598.5" x2="1897.5" y1="74" y2="74"/>
            <line style="stroke:#181818;stroke-width:0.5;" x1="1598.5" x2="1897.5" y1="82" y2="82"/>
            <ellipse cx="1608.5" cy="96.3047" fill="#84BE84" rx="3" ry="3" style="stroke:#038048;stroke-width:1.0;"/>
            <text fill="#000000" font-family="sans-serif" font-size="14" lengthAdjust="spacing" textLength="119" x="1617.5" y="100.5332">displayMap() : void</text>
            <ellipse cx="1608.5" cy="113.9141" fill="#84BE84" rx="3" ry="3" style="stroke:#038048;stroke-width:1.0;"/>
            <text fill="#000000" font-family="sans-serif" font-size="14" lengthAdjust="spacing" textLength="275" x="1617.5" y="118.1426">showProvinceInfo(province: Province) : void</text>
        </g>
        <!--class UserProfileView-->
        <g id="elem_UserProfileView">
            <rect codeLine="10" fill="#F1F1F1" height="83.2188" id="UserProfileView" rx="2.5" ry="2.5" style="stroke:#181818;stroke-width:0.5;" width="278" x="1284" y="42"/>
            <ellipse cx="1369.75" cy="58" fill="#ADD1B2" rx="11" ry="11" style="stroke:#181818;stroke-width:1.0;"/>
            <path d="M1372.5156,53.875 Q1372.6719,53.6563 1372.8594,53.5469 Q1373.0469,53.4375 1373.2656,53.4375 Q1373.6406,53.4375 1373.875,53.7031 Q1374.1094,53.9531 1374.1094,54.5625 L1374.1094,56.0156 Q1374.1094,56.625 1373.875,56.8906 Q1373.6406,57.1563 1373.2656,57.1563 Q1372.9219,57.1563 1372.7188,56.9531 Q1372.5156,56.7656 1372.4063,56.25 Q1372.3594,55.8906 1372.1719,55.7031 Q1371.8438,55.3281 1371.2344,55.1094 Q1370.625,54.8906 1370,54.8906 Q1369.2344,54.8906 1368.5938,55.2188 Q1367.9688,55.5469 1367.4688,56.2969 Q1366.9844,57.0469 1366.9844,58.0781 L1366.9844,59.1719 Q1366.9844,60.4063 1367.875,61.2344 Q1368.7656,62.0469 1370.3594,62.0469 Q1371.2969,62.0469 1371.9531,61.7969 Q1372.3438,61.6406 1372.7656,61.2031 Q1373.0313,60.9375 1373.1719,60.8594 Q1373.3281,60.7813 1373.5313,60.7813 Q1373.8594,60.7813 1374.1094,61.0469 Q1374.375,61.2969 1374.375,61.6406 Q1374.375,61.9844 1374.0313,62.3906 Q1373.5313,62.9688 1372.7344,63.2969 Q1371.6563,63.75 1370.3594,63.75 Q1368.8438,63.75 1367.6406,63.125 Q1366.6563,62.625 1365.9688,61.5625 Q1365.2813,60.4844 1365.2813,59.2031 L1365.2813,58.0469 Q1365.2813,56.7188 1365.8906,55.5781 Q1366.5156,54.4219 1367.6094,53.8125 Q1368.7031,53.1875 1369.9375,53.1875 Q1370.6719,53.1875 1371.3125,53.3594 Q1371.9688,53.5156 1372.5156,53.875 Z " fill="#000000"/>
            <text fill="#000000" font-family="sans-serif" font-size="14" lengthAdjust="spacing" textLength="98" x="1390.25" y="63.7285">UserProfileView</text>
            <line style="stroke:#181818;stroke-width:0.5;" x1="1285" x2="1561" y1="74" y2="74"/>
            <line style="stroke:#181818;stroke-width:0.5;" x1="1285" x2="1561" y1="82" y2="82"/>
            <ellipse cx="1295" cy="96.3047" fill="#84BE84" rx="3" ry="3" style="stroke:#038048;stroke-width:1.0;"/>
            <text fill="#000000" font-family="sans-serif" font-size="14" lengthAdjust="spacing" textLength="226" x="1304" y="100.5332">displayUserProfile(user: User) : void</text>
            <ellipse cx="1295" cy="113.9141" fill="#84BE84" rx="3" ry="3" style="stroke:#038048;stroke-width:1.0;"/>
            <text fill="#000000" font-family="sans-serif" font-size="14" lengthAdjust="spacing" textLength="252" x="1304" y="118.1426">showUserPosts(posts: List&lt;Post&gt;) : void</text>
        </g>
        <!--class PostView-->
        <g id="elem_PostView">
            <rect codeLine="15" fill="#F1F1F1" height="83.2188" id="PostView" rx="2.5" ry="2.5" style="stroke:#181818;stroke-width:0.5;" width="250" x="1197" y="238.5"/>
            <ellipse cx="1289.25" cy="254.5" fill="#ADD1B2" rx="11" ry="11" style="stroke:#181818;stroke-width:1.0;"/>
            <path d="M1292.0156,250.375 Q1292.1719,250.1563 1292.3594,250.0469 Q1292.5469,249.9375 1292.7656,249.9375 Q1293.1406,249.9375 1293.375,250.2031 Q1293.6094,250.4531 1293.6094,251.0625 L1293.6094,252.5156 Q1293.6094,253.125 1293.375,253.3906 Q1293.1406,253.6563 1292.7656,253.6563 Q1292.4219,253.6563 1292.2188,253.4531 Q1292.0156,253.2656 1291.9063,252.75 Q1291.8594,252.3906 1291.6719,252.2031 Q1291.3438,251.8281 1290.7344,251.6094 Q1290.125,251.3906 1289.5,251.3906 Q1288.7344,251.3906 1288.0938,251.7188 Q1287.4688,252.0469 1286.9688,252.7969 Q1286.4844,253.5469 1286.4844,254.5781 L1286.4844,255.6719 Q1286.4844,256.9063 1287.375,257.7344 Q1288.2656,258.5469 1289.8594,258.5469 Q1290.7969,258.5469 1291.4531,258.2969 Q1291.8438,258.1406 1292.2656,257.7031 Q1292.5313,257.4375 1292.6719,257.3594 Q1292.8281,257.2813 1293.0313,257.2813 Q1293.3594,257.2813 1293.6094,257.5469 Q1293.875,257.7969 1293.875,258.1406 Q1293.875,258.4844 1293.5313,258.8906 Q1293.0313,259.4688 1292.2344,259.7969 Q1291.1563,260.25 1289.8594,260.25 Q1288.3438,260.25 1287.1406,259.625 Q1286.1563,259.125 1285.4688,258.0625 Q1284.7813,256.9844 1284.7813,255.7031 L1284.7813,254.5469 Q1284.7813,253.2188 1285.3906,252.0781 Q1286.0156,250.9219 1287.1094,250.3125 Q1288.2031,249.6875 1289.4375,249.6875 Q1290.1719,249.6875 1290.8125,249.8594 Q1291.4688,250.0156 1292.0156,250.375 Z " fill="#000000"/>
            <text fill="#000000" font-family="sans-serif" font-size="14" lengthAdjust="spacing" textLength="57" x="1309.75" y="260.2285">PostView</text>
            <line style="stroke:#181818;stroke-width:0.5;" x1="1198" x2="1446" y1="270.5" y2="270.5"/>
            <line style="stroke:#181818;stroke-width:0.5;" x1="1198" x2="1446" y1="278.5" y2="278.5"/>
            <ellipse cx="1208" cy="292.8047" fill="#84BE84" rx="3" ry="3" style="stroke:#038048;stroke-width:1.0;"/>
            <text fill="#000000" font-family="sans-serif" font-size="14" lengthAdjust="spacing" textLength="183" x="1217" y="297.0332">displayPost(post: Post) : void</text>
            <ellipse cx="1208" cy="310.4141" fill="#84BE84" rx="3" ry="3" style="stroke:#038048;stroke-width:1.0;"/>
            <text fill="#000000" font-family="sans-serif" font-size="14" lengthAdjust="spacing" textLength="224" x="1217" y="314.6426">addComment(content: String) : void</text>
        </g>
        <!--class Province-->
        <g id="elem_Province">
            <rect codeLine="21" fill="#F1F1F1" height="153.6563" id="Province" rx="2.5" ry="2.5" style="stroke:#181818;stroke-width:0.5;" width="144" x="1695" y="203"/>
            <ellipse cx="1735.65" cy="219" fill="#ADD1B2" rx="11" ry="11" style="stroke:#181818;stroke-width:1.0;"/>
            <path d="M1738.4156,214.875 Q1738.5719,214.6563 1738.7594,214.5469 Q1738.9469,214.4375 1739.1656,214.4375 Q1739.5406,214.4375 1739.775,214.7031 Q1740.0094,214.9531 1740.0094,215.5625 L1740.0094,217.0156 Q1740.0094,217.625 1739.775,217.8906 Q1739.5406,218.1563 1739.1656,218.1563 Q1738.8219,218.1563 1738.6188,217.9531 Q1738.4156,217.7656 1738.3063,217.25 Q1738.2594,216.8906 1738.0719,216.7031 Q1737.7438,216.3281 1737.1344,216.1094 Q1736.525,215.8906 1735.9,215.8906 Q1735.1344,215.8906 1734.4938,216.2188 Q1733.8688,216.5469 1733.3688,217.2969 Q1732.8844,218.0469 1732.8844,219.0781 L1732.8844,220.1719 Q1732.8844,221.4063 1733.775,222.2344 Q1734.6656,223.0469 1736.2594,223.0469 Q1737.1969,223.0469 1737.8531,222.7969 Q1738.2438,222.6406 1738.6656,222.2031 Q1738.9313,221.9375 1739.0719,221.8594 Q1739.2281,221.7813 1739.4313,221.7813 Q1739.7594,221.7813 1740.0094,222.0469 Q1740.275,222.2969 1740.275,222.6406 Q1740.275,222.9844 1739.9313,223.3906 Q1739.4313,223.9688 1738.6344,224.2969 Q1737.5563,224.75 1736.2594,224.75 Q1734.7438,224.75 1733.5406,224.125 Q1732.5563,223.625 1731.8688,222.5625 Q1731.1813,221.4844 1731.1813,220.2031 L1731.1813,219.0469 Q1731.1813,217.7188 1731.7906,216.5781 Q1732.4156,215.4219 1733.5094,214.8125 Q1734.6031,214.1875 1735.8375,214.1875 Q1736.5719,214.1875 1737.2125,214.3594 Q1737.8688,214.5156 1738.4156,214.875 Z " fill="#000000"/>
            <text fill="#000000" font-family="sans-serif" font-size="14" lengthAdjust="spacing" textLength="55" x="1755.35" y="224.7285">Province</text>
            <line style="stroke:#181818;stroke-width:0.5;" x1="1696" x2="1838" y1="235" y2="235"/>
            <ellipse cx="1706" cy="249.3047" fill="none" rx="3" ry="3" style="stroke:#038048;stroke-width:1.0;"/>
            <text fill="#000000" font-family="sans-serif" font-size="14" lengthAdjust="spacing" textLength="55" x="1715" y="253.5332">id : Long</text>
            <ellipse cx="1706" cy="266.9141" fill="none" rx="3" ry="3" style="stroke:#038048;stroke-width:1.0;"/>
            <text fill="#000000" font-family="sans-serif" font-size="14" lengthAdjust="spacing" textLength="84" x="1715" y="271.1426">name : String</text>
            <ellipse cx="1706" cy="284.5234" fill="none" rx="3" ry="3" style="stroke:#038048;stroke-width:1.0;"/>
            <text fill="#000000" font-family="sans-serif" font-size="14" lengthAdjust="spacing" textLength="89" x="1715" y="288.752">region : String</text>
            <ellipse cx="1706" cy="302.1328" fill="none" rx="3" ry="3" style="stroke:#038048;stroke-width:1.0;"/>
            <text fill="#000000" font-family="sans-serif" font-size="14" lengthAdjust="spacing" textLength="93" x="1715" y="306.3613">population : int</text>
            <ellipse cx="1706" cy="319.7422" fill="none" rx="3" ry="3" style="stroke:#038048;stroke-width:1.0;"/>
            <text fill="#000000" font-family="sans-serif" font-size="14" lengthAdjust="spacing" textLength="118" x="1715" y="323.9707">description : String</text>
            <line style="stroke:#181818;stroke-width:0.5;" x1="1696" x2="1838" y1="331.0469" y2="331.0469"/>
            <ellipse cx="1706" cy="345.3516" fill="#84BE84" rx="3" ry="3" style="stroke:#038048;stroke-width:1.0;"/>
            <text fill="#000000" font-family="sans-serif" font-size="14" lengthAdjust="spacing" textLength="102" x="1715" y="349.5801">getInfo() : String</text>
        </g>
        <!--class User-->
        <g id="elem_User">
            <rect codeLine="30" fill="#F1F1F1" height="153.6563" id="User" rx="2.5" ry="2.5" style="stroke:#181818;stroke-width:0.5;" width="177" x="1482.5" y="203"/>
            <ellipse cx="1552.25" cy="219" fill="#ADD1B2" rx="11" ry="11" style="stroke:#181818;stroke-width:1.0;"/>
            <path d="M1555.0156,214.875 Q1555.1719,214.6563 1555.3594,214.5469 Q1555.5469,214.4375 1555.7656,214.4375 Q1556.1406,214.4375 1556.375,214.7031 Q1556.6094,214.9531 1556.6094,215.5625 L1556.6094,217.0156 Q1556.6094,217.625 1556.375,217.8906 Q1556.1406,218.1563 1555.7656,218.1563 Q1555.4219,218.1563 1555.2188,217.9531 Q1555.0156,217.7656 1554.9063,217.25 Q1554.8594,216.8906 1554.6719,216.7031 Q1554.3438,216.3281 1553.7344,216.1094 Q1553.125,215.8906 1552.5,215.8906 Q1551.7344,215.8906 1551.0938,216.2188 Q1550.4688,216.5469 1549.9688,217.2969 Q1549.4844,218.0469 1549.4844,219.0781 L1549.4844,220.1719 Q1549.4844,221.4063 1550.375,222.2344 Q1551.2656,223.0469 1552.8594,223.0469 Q1553.7969,223.0469 1554.4531,222.7969 Q1554.8438,222.6406 1555.2656,222.2031 Q1555.5313,221.9375 1555.6719,221.8594 Q1555.8281,221.7813 1556.0313,221.7813 Q1556.3594,221.7813 1556.6094,222.0469 Q1556.875,222.2969 1556.875,222.6406 Q1556.875,222.9844 1556.5313,223.3906 Q1556.0313,223.9688 1555.2344,224.2969 Q1554.1563,224.75 1552.8594,224.75 Q1551.3438,224.75 1550.1406,224.125 Q1549.1563,223.625 1548.4688,222.5625 Q1547.7813,221.4844 1547.7813,220.2031 L1547.7813,219.0469 Q1547.7813,217.7188 1548.3906,216.5781 Q1549.0156,215.4219 1550.1094,214.8125 Q1551.2031,214.1875 1552.4375,214.1875 Q1553.1719,214.1875 1553.8125,214.3594 Q1554.4688,214.5156 1555.0156,214.875 Z " fill="#000000"/>
            <text fill="#000000" font-family="sans-serif" font-size="14" lengthAdjust="spacing" textLength="29" x="1572.75" y="224.7285">User</text>
            <line style="stroke:#181818;stroke-width:0.5;" x1="1483.5" x2="1658.5" y1="235" y2="235"/>
            <ellipse cx="1493.5" cy="249.3047" fill="none" rx="3" ry="3" style="stroke:#038048;stroke-width:1.0;"/>
            <text fill="#000000" font-family="sans-serif" font-size="14" lengthAdjust="spacing" textLength="55" x="1502.5" y="253.5332">id : Long</text>
            <ellipse cx="1493.5" cy="266.9141" fill="none" rx="3" ry="3" style="stroke:#038048;stroke-width:1.0;"/>
            <text fill="#000000" font-family="sans-serif" font-size="14" lengthAdjust="spacing" textLength="112" x="1502.5" y="271.1426">username : String</text>
            <ellipse cx="1493.5" cy="284.5234" fill="none" rx="3" ry="3" style="stroke:#038048;stroke-width:1.0;"/>
            <text fill="#000000" font-family="sans-serif" font-size="14" lengthAdjust="spacing" textLength="109" x="1502.5" y="288.752">password : String</text>
            <ellipse cx="1493.5" cy="302.1328" fill="none" rx="3" ry="3" style="stroke:#038048;stroke-width:1.0;"/>
            <text fill="#000000" font-family="sans-serif" font-size="14" lengthAdjust="spacing" textLength="103" x="1502.5" y="306.3613">fullName : String</text>
            <ellipse cx="1493.5" cy="319.7422" fill="none" rx="3" ry="3" style="stroke:#038048;stroke-width:1.0;"/>
            <text fill="#000000" font-family="sans-serif" font-size="14" lengthAdjust="spacing" textLength="82" x="1502.5" y="323.9707">email : String</text>
            <line style="stroke:#181818;stroke-width:0.5;" x1="1483.5" x2="1658.5" y1="331.0469" y2="331.0469"/>
            <ellipse cx="1493.5" cy="345.3516" fill="#84BE84" rx="3" ry="3" style="stroke:#038048;stroke-width:1.0;"/>
            <text fill="#000000" font-family="sans-serif" font-size="14" lengthAdjust="spacing" textLength="151" x="1502.5" y="349.5801">getProfile() : UserProfile</text>
        </g>
        <!--class Post-->
        <g id="elem_Post">
            <rect codeLine="39" fill="#F1F1F1" height="171.2656" id="Post" rx="2.5" ry="2.5" style="stroke:#181818;stroke-width:0.5;" width="142" x="1500" y="435"/>
            <ellipse cx="1552.75" cy="451" fill="#ADD1B2" rx="11" ry="11" style="stroke:#181818;stroke-width:1.0;"/>
            <path d="M1555.5156,446.875 Q1555.6719,446.6563 1555.8594,446.5469 Q1556.0469,446.4375 1556.2656,446.4375 Q1556.6406,446.4375 1556.875,446.7031 Q1557.1094,446.9531 1557.1094,447.5625 L1557.1094,449.0156 Q1557.1094,449.625 1556.875,449.8906 Q1556.6406,450.1563 1556.2656,450.1563 Q1555.9219,450.1563 1555.7188,449.9531 Q1555.5156,449.7656 1555.4063,449.25 Q1555.3594,448.8906 1555.1719,448.7031 Q1554.8438,448.3281 1554.2344,448.1094 Q1553.625,447.8906 1553,447.8906 Q1552.2344,447.8906 1551.5938,448.2188 Q1550.9688,448.5469 1550.4688,449.2969 Q1549.9844,450.0469 1549.9844,451.0781 L1549.9844,452.1719 Q1549.9844,453.4063 1550.875,454.2344 Q1551.7656,455.0469 1553.3594,455.0469 Q1554.2969,455.0469 1554.9531,454.7969 Q1555.3438,454.6406 1555.7656,454.2031 Q1556.0313,453.9375 1556.1719,453.8594 Q1556.3281,453.7813 1556.5313,453.7813 Q1556.8594,453.7813 1557.1094,454.0469 Q1557.375,454.2969 1557.375,454.6406 Q1557.375,454.9844 1557.0313,455.3906 Q1556.5313,455.9688 1555.7344,456.2969 Q1554.6563,456.75 1553.3594,456.75 Q1551.8438,456.75 1550.6406,456.125 Q1549.6563,455.625 1548.9688,454.5625 Q1548.2813,453.4844 1548.2813,452.2031 L1548.2813,451.0469 Q1548.2813,449.7188 1548.8906,448.5781 Q1549.5156,447.4219 1550.6094,446.8125 Q1551.7031,446.1875 1552.9375,446.1875 Q1553.6719,446.1875 1554.3125,446.3594 Q1554.9688,446.5156 1555.5156,446.875 Z " fill="#000000"/>
            <text fill="#000000" font-family="sans-serif" font-size="14" lengthAdjust="spacing" textLength="28" x="1573.25" y="456.7285">Post</text>
            <line style="stroke:#181818;stroke-width:0.5;" x1="1501" x2="1641" y1="467" y2="467"/>
            <ellipse cx="1511" cy="481.3047" fill="none" rx="3" ry="3" style="stroke:#038048;stroke-width:1.0;"/>
            <text fill="#000000" font-family="sans-serif" font-size="14" lengthAdjust="spacing" textLength="55" x="1520" y="485.5332">id : Long</text>
            <ellipse cx="1511" cy="498.9141" fill="none" rx="3" ry="3" style="stroke:#038048;stroke-width:1.0;"/>
            <text fill="#000000" font-family="sans-serif" font-size="14" lengthAdjust="spacing" textLength="83" x="1520" y="503.1426">userId : Long</text>
            <ellipse cx="1511" cy="516.5234" fill="none" rx="3" ry="3" style="stroke:#038048;stroke-width:1.0;"/>
            <text fill="#000000" font-family="sans-serif" font-size="14" lengthAdjust="spacing" textLength="96" x="1520" y="520.752">content : String</text>
            <ellipse cx="1511" cy="534.1328" fill="none" rx="3" ry="3" style="stroke:#038048;stroke-width:1.0;"/>
            <text fill="#000000" font-family="sans-serif" font-size="14" lengthAdjust="spacing" textLength="104" x="1520" y="538.3613">imageUrl : String</text>
            <ellipse cx="1511" cy="551.7422" fill="none" rx="3" ry="3" style="stroke:#038048;stroke-width:1.0;"/>
            <text fill="#000000" font-family="sans-serif" font-size="14" lengthAdjust="spacing" textLength="103" x="1520" y="555.9707">createdAt : Date</text>
            <line style="stroke:#181818;stroke-width:0.5;" x1="1501" x2="1641" y1="563.0469" y2="563.0469"/>
            <ellipse cx="1511" cy="577.3516" fill="#84BE84" rx="3" ry="3" style="stroke:#038048;stroke-width:1.0;"/>
            <text fill="#000000" font-family="sans-serif" font-size="14" lengthAdjust="spacing" textLength="116" x="1520" y="581.5801">createPost() : void</text>
            <ellipse cx="1511" cy="594.9609" fill="#84BE84" rx="3" ry="3" style="stroke:#038048;stroke-width:1.0;"/>
            <text fill="#000000" font-family="sans-serif" font-size="14" lengthAdjust="spacing" textLength="115" x="1520" y="599.1895">deletePost() : void</text>
        </g>
        <!--class Comment-->
        <g id="elem_Comment">
            <rect codeLine="49" fill="#F1F1F1" height="153.6563" id="Comment" rx="2.5" ry="2.5" style="stroke:#181818;stroke-width:0.5;" width="158" x="1492" y="684"/>
            <ellipse cx="1536.75" cy="700" fill="#ADD1B2" rx="11" ry="11" style="stroke:#181818;stroke-width:1.0;"/>
            <path d="M1539.5156,695.875 Q1539.6719,695.6563 1539.8594,695.5469 Q1540.0469,695.4375 1540.2656,695.4375 Q1540.6406,695.4375 1540.875,695.7031 Q1541.1094,695.9531 1541.1094,696.5625 L1541.1094,698.0156 Q1541.1094,698.625 1540.875,698.8906 Q1540.6406,699.1563 1540.2656,699.1563 Q1539.9219,699.1563 1539.7188,698.9531 Q1539.5156,698.7656 1539.4063,698.25 Q1539.3594,697.8906 1539.1719,697.7031 Q1538.8438,697.3281 1538.2344,697.1094 Q1537.625,696.8906 1537,696.8906 Q1536.2344,696.8906 1535.5938,697.2188 Q1534.9688,697.5469 1534.4688,698.2969 Q1533.9844,699.0469 1533.9844,700.0781 L1533.9844,701.1719 Q1533.9844,702.4063 1534.875,703.2344 Q1535.7656,704.0469 1537.3594,704.0469 Q1538.2969,704.0469 1538.9531,703.7969 Q1539.3438,703.6406 1539.7656,703.2031 Q1540.0313,702.9375 1540.1719,702.8594 Q1540.3281,702.7813 1540.5313,702.7813 Q1540.8594,702.7813 1541.1094,703.0469 Q1541.375,703.2969 1541.375,703.6406 Q1541.375,703.9844 1541.0313,704.3906 Q1540.5313,704.9688 1539.7344,705.2969 Q1538.6563,705.75 1537.3594,705.75 Q1535.8438,705.75 1534.6406,705.125 Q1533.6563,704.625 1532.9688,703.5625 Q1532.2813,702.4844 1532.2813,701.2031 L1532.2813,700.0469 Q1532.2813,698.7188 1532.8906,697.5781 Q1533.5156,696.4219 1534.6094,695.8125 Q1535.7031,695.1875 1536.9375,695.1875 Q1537.6719,695.1875 1538.3125,695.3594 Q1538.9688,695.5156 1539.5156,695.875 Z " fill="#000000"/>
            <text fill="#000000" font-family="sans-serif" font-size="14" lengthAdjust="spacing" textLength="60" x="1557.25" y="705.7285">Comment</text>
            <line style="stroke:#181818;stroke-width:0.5;" x1="1493" x2="1649" y1="716" y2="716"/>
            <ellipse cx="1503" cy="730.3047" fill="none" rx="3" ry="3" style="stroke:#038048;stroke-width:1.0;"/>
            <text fill="#000000" font-family="sans-serif" font-size="14" lengthAdjust="spacing" textLength="55" x="1512" y="734.5332">id : Long</text>
            <ellipse cx="1503" cy="747.9141" fill="none" rx="3" ry="3" style="stroke:#038048;stroke-width:1.0;"/>
            <text fill="#000000" font-family="sans-serif" font-size="14" lengthAdjust="spacing" textLength="82" x="1512" y="752.1426">postId : Long</text>
            <ellipse cx="1503" cy="765.5234" fill="none" rx="3" ry="3" style="stroke:#038048;stroke-width:1.0;"/>
            <text fill="#000000" font-family="sans-serif" font-size="14" lengthAdjust="spacing" textLength="83" x="1512" y="769.752">userId : Long</text>
            <ellipse cx="1503" cy="783.1328" fill="none" rx="3" ry="3" style="stroke:#038048;stroke-width:1.0;"/>
            <text fill="#000000" font-family="sans-serif" font-size="14" lengthAdjust="spacing" textLength="96" x="1512" y="787.3613">content : String</text>
            <ellipse cx="1503" cy="800.7422" fill="none" rx="3" ry="3" style="stroke:#038048;stroke-width:1.0;"/>
            <text fill="#000000" font-family="sans-serif" font-size="14" lengthAdjust="spacing" textLength="103" x="1512" y="804.9707">createdAt : Date</text>
            <line style="stroke:#181818;stroke-width:0.5;" x1="1493" x2="1649" y1="812.0469" y2="812.0469"/>
            <ellipse cx="1503" cy="826.3516" fill="#84BE84" rx="3" ry="3" style="stroke:#038048;stroke-width:1.0;"/>
            <text fill="#000000" font-family="sans-serif" font-size="14" lengthAdjust="spacing" textLength="132" x="1512" y="830.5801">addComment() : void</text>
        </g>
        <!--class ProvinceRepository-->
        <g id="elem_ProvinceRepository">
            <rect codeLine="58" fill="#F1F1F1" height="83.2188" id="ProvinceRepository" rx="2.5" ry="2.5" style="stroke:#181818;stroke-width:0.5;" width="204" x="958" y="238.5"/>
            <ellipse cx="995.05" cy="254.5" fill="#ADD1B2" rx="11" ry="11" style="stroke:#181818;stroke-width:1.0;"/>
            <path d="M997.8156,250.375 Q997.9719,250.1563 998.1594,250.0469 Q998.3469,249.9375 998.5656,249.9375 Q998.9406,249.9375 999.175,250.2031 Q999.4094,250.4531 999.4094,251.0625 L999.4094,252.5156 Q999.4094,253.125 999.175,253.3906 Q998.9406,253.6563 998.5656,253.6563 Q998.2219,253.6563 998.0188,253.4531 Q997.8156,253.2656 997.7063,252.75 Q997.6594,252.3906 997.4719,252.2031 Q997.1438,251.8281 996.5344,251.6094 Q995.925,251.3906 995.3,251.3906 Q994.5344,251.3906 993.8938,251.7188 Q993.2688,252.0469 992.7688,252.7969 Q992.2844,253.5469 992.2844,254.5781 L992.2844,255.6719 Q992.2844,256.9063 993.175,257.7344 Q994.0656,258.5469 995.6594,258.5469 Q996.5969,258.5469 997.2531,258.2969 Q997.6438,258.1406 998.0656,257.7031 Q998.3313,257.4375 998.4719,257.3594 Q998.6281,257.2813 998.8313,257.2813 Q999.1594,257.2813 999.4094,257.5469 Q999.675,257.7969 999.675,258.1406 Q999.675,258.4844 999.3313,258.8906 Q998.8313,259.4688 998.0344,259.7969 Q996.9563,260.25 995.6594,260.25 Q994.1438,260.25 992.9406,259.625 Q991.9563,259.125 991.2688,258.0625 Q990.5813,256.9844 990.5813,255.7031 L990.5813,254.5469 Q990.5813,253.2188 991.1906,252.0781 Q991.8156,250.9219 992.9094,250.3125 Q994.0031,249.6875 995.2375,249.6875 Q995.9719,249.6875 996.6125,249.8594 Q997.2688,250.0156 997.8156,250.375 Z " fill="#000000"/>
            <text fill="#000000" font-family="sans-serif" font-size="14" lengthAdjust="spacing" textLength="123" x="1013.95" y="260.2285">ProvinceRepository</text>
            <line style="stroke:#181818;stroke-width:0.5;" x1="959" x2="1161" y1="270.5" y2="270.5"/>
            <line style="stroke:#181818;stroke-width:0.5;" x1="959" x2="1161" y1="278.5" y2="278.5"/>
            <ellipse cx="969" cy="292.8047" fill="#84BE84" rx="3" ry="3" style="stroke:#038048;stroke-width:1.0;"/>
            <text fill="#000000" font-family="sans-serif" font-size="14" lengthAdjust="spacing" textLength="178" x="978" y="297.0332">findById(id: Long) : Province</text>
            <ellipse cx="969" cy="310.4141" fill="#84BE84" rx="3" ry="3" style="stroke:#038048;stroke-width:1.0;"/>
            <text fill="#000000" font-family="sans-serif" font-size="14" lengthAdjust="spacing" textLength="153" x="978" y="314.6426">findAll() : List&lt;Province&gt;</text>
        </g>
        <!--class UserRepository-->
        <g id="elem_UserRepository">
            <rect codeLine="63" fill="#F1F1F1" height="83.2188" id="UserRepository" rx="2.5" ry="2.5" style="stroke:#181818;stroke-width:0.5;" width="178" x="745" y="238.5"/>
            <ellipse cx="782.05" cy="254.5" fill="#ADD1B2" rx="11" ry="11" style="stroke:#181818;stroke-width:1.0;"/>
            <path d="M784.8156,250.375 Q784.9719,250.1563 785.1594,250.0469 Q785.3469,249.9375 785.5656,249.9375 Q785.9406,249.9375 786.175,250.2031 Q786.4094,250.4531 786.4094,251.0625 L786.4094,252.5156 Q786.4094,253.125 786.175,253.3906 Q785.9406,253.6563 785.5656,253.6563 Q785.2219,253.6563 785.0188,253.4531 Q784.8156,253.2656 784.7063,252.75 Q784.6594,252.3906 784.4719,252.2031 Q784.1438,251.8281 783.5344,251.6094 Q782.925,251.3906 782.3,251.3906 Q781.5344,251.3906 780.8938,251.7188 Q780.2688,252.0469 779.7688,252.7969 Q779.2844,253.5469 779.2844,254.5781 L779.2844,255.6719 Q779.2844,256.9063 780.175,257.7344 Q781.0656,258.5469 782.6594,258.5469 Q783.5969,258.5469 784.2531,258.2969 Q784.6438,258.1406 785.0656,257.7031 Q785.3313,257.4375 785.4719,257.3594 Q785.6281,257.2813 785.8313,257.2813 Q786.1594,257.2813 786.4094,257.5469 Q786.675,257.7969 786.675,258.1406 Q786.675,258.4844 786.3313,258.8906 Q785.8313,259.4688 785.0344,259.7969 Q783.9563,260.25 782.6594,260.25 Q781.1438,260.25 779.9406,259.625 Q778.9563,259.125 778.2688,258.0625 Q777.5813,256.9844 777.5813,255.7031 L777.5813,254.5469 Q777.5813,253.2188 778.1906,252.0781 Q778.8156,250.9219 779.9094,250.3125 Q781.0031,249.6875 782.2375,249.6875 Q782.9719,249.6875 783.6125,249.8594 Q784.2688,250.0156 784.8156,250.375 Z " fill="#000000"/>
            <text fill="#000000" font-family="sans-serif" font-size="14" lengthAdjust="spacing" textLength="97" x="800.95" y="260.2285">UserRepository</text>
            <line style="stroke:#181818;stroke-width:0.5;" x1="746" x2="922" y1="270.5" y2="270.5"/>
            <line style="stroke:#181818;stroke-width:0.5;" x1="746" x2="922" y1="278.5" y2="278.5"/>
            <ellipse cx="756" cy="292.8047" fill="#84BE84" rx="3" ry="3" style="stroke:#038048;stroke-width:1.0;"/>
            <text fill="#000000" font-family="sans-serif" font-size="14" lengthAdjust="spacing" textLength="152" x="765" y="297.0332">findById(id: Long) : User</text>
            <ellipse cx="756" cy="310.4141" fill="#84BE84" rx="3" ry="3" style="stroke:#038048;stroke-width:1.0;"/>
            <text fill="#000000" font-family="sans-serif" font-size="14" lengthAdjust="spacing" textLength="143" x="765" y="314.6426">save(user: User) : void</text>
        </g>
        <!--class PostRepository-->
        <g id="elem_PostRepository">
            <rect codeLine="68" fill="#F1F1F1" height="83.2188" id="PostRepository" rx="2.5" ry="2.5" style="stroke:#181818;stroke-width:0.5;" width="272" x="423" y="238.5"/>
            <ellipse cx="506.75" cy="254.5" fill="#ADD1B2" rx="11" ry="11" style="stroke:#181818;stroke-width:1.0;"/>
            <path d="M509.5156,250.375 Q509.6719,250.1563 509.8594,250.0469 Q510.0469,249.9375 510.2656,249.9375 Q510.6406,249.9375 510.875,250.2031 Q511.1094,250.4531 511.1094,251.0625 L511.1094,252.5156 Q511.1094,253.125 510.875,253.3906 Q510.6406,253.6563 510.2656,253.6563 Q509.9219,253.6563 509.7188,253.4531 Q509.5156,253.2656 509.4063,252.75 Q509.3594,252.3906 509.1719,252.2031 Q508.8438,251.8281 508.2344,251.6094 Q507.625,251.3906 507,251.3906 Q506.2344,251.3906 505.5938,251.7188 Q504.9688,252.0469 504.4688,252.7969 Q503.9844,253.5469 503.9844,254.5781 L503.9844,255.6719 Q503.9844,256.9063 504.875,257.7344 Q505.7656,258.5469 507.3594,258.5469 Q508.2969,258.5469 508.9531,258.2969 Q509.3438,258.1406 509.7656,257.7031 Q510.0313,257.4375 510.1719,257.3594 Q510.3281,257.2813 510.5313,257.2813 Q510.8594,257.2813 511.1094,257.5469 Q511.375,257.7969 511.375,258.1406 Q511.375,258.4844 511.0313,258.8906 Q510.5313,259.4688 509.7344,259.7969 Q508.6563,260.25 507.3594,260.25 Q505.8438,260.25 504.6406,259.625 Q503.6563,259.125 502.9688,258.0625 Q502.2813,256.9844 502.2813,255.7031 L502.2813,254.5469 Q502.2813,253.2188 502.8906,252.0781 Q503.5156,250.9219 504.6094,250.3125 Q505.7031,249.6875 506.9375,249.6875 Q507.6719,249.6875 508.3125,249.8594 Q508.9688,250.0156 509.5156,250.375 Z " fill="#000000"/>
            <text fill="#000000" font-family="sans-serif" font-size="14" lengthAdjust="spacing" textLength="96" x="527.25" y="260.2285">PostRepository</text>
            <line style="stroke:#181818;stroke-width:0.5;" x1="424" x2="694" y1="270.5" y2="270.5"/>
            <line style="stroke:#181818;stroke-width:0.5;" x1="424" x2="694" y1="278.5" y2="278.5"/>
            <ellipse cx="434" cy="292.8047" fill="#84BE84" rx="3" ry="3" style="stroke:#038048;stroke-width:1.0;"/>
            <text fill="#000000" font-family="sans-serif" font-size="14" lengthAdjust="spacing" textLength="151" x="443" y="297.0332">findById(id: Long) : Post</text>
            <ellipse cx="434" cy="310.4141" fill="#84BE84" rx="3" ry="3" style="stroke:#038048;stroke-width:1.0;"/>
            <text fill="#000000" font-family="sans-serif" font-size="14" lengthAdjust="spacing" textLength="246" x="443" y="314.6426">findByUserId(userId: Long) : List&lt;Post&gt;</text>
        </g>
        <!--class CommentRepository-->
        <g id="elem_CommentRepository">
            <rect codeLine="73" fill="#F1F1F1" height="83.2188" id="CommentRepository" rx="2.5" ry="2.5" style="stroke:#181818;stroke-width:0.5;" width="302" x="49" y="238.5"/>
            <ellipse cx="131.75" cy="254.5" fill="#ADD1B2" rx="11" ry="11" style="stroke:#181818;stroke-width:1.0;"/>
            <path d="M134.5156,250.375 Q134.6719,250.1563 134.8594,250.0469 Q135.0469,249.9375 135.2656,249.9375 Q135.6406,249.9375 135.875,250.2031 Q136.1094,250.4531 136.1094,251.0625 L136.1094,252.5156 Q136.1094,253.125 135.875,253.3906 Q135.6406,253.6563 135.2656,253.6563 Q134.9219,253.6563 134.7188,253.4531 Q134.5156,253.2656 134.4063,252.75 Q134.3594,252.3906 134.1719,252.2031 Q133.8438,251.8281 133.2344,251.6094 Q132.625,251.3906 132,251.3906 Q131.2344,251.3906 130.5938,251.7188 Q129.9688,252.0469 129.4688,252.7969 Q128.9844,253.5469 128.9844,254.5781 L128.9844,255.6719 Q128.9844,256.9063 129.875,257.7344 Q130.7656,258.5469 132.3594,258.5469 Q133.2969,258.5469 133.9531,258.2969 Q134.3438,258.1406 134.7656,257.7031 Q135.0313,257.4375 135.1719,257.3594 Q135.3281,257.2813 135.5313,257.2813 Q135.8594,257.2813 136.1094,257.5469 Q136.375,257.7969 136.375,258.1406 Q136.375,258.4844 136.0313,258.8906 Q135.5313,259.4688 134.7344,259.7969 Q133.6563,260.25 132.3594,260.25 Q130.8438,260.25 129.6406,259.625 Q128.6563,259.125 127.9688,258.0625 Q127.2813,256.9844 127.2813,255.7031 L127.2813,254.5469 Q127.2813,253.2188 127.8906,252.0781 Q128.5156,250.9219 129.6094,250.3125 Q130.7031,249.6875 131.9375,249.6875 Q132.6719,249.6875 133.3125,249.8594 Q133.9688,250.0156 134.5156,250.375 Z " fill="#000000"/>
            <text fill="#000000" font-family="sans-serif" font-size="14" lengthAdjust="spacing" textLength="128" x="152.25" y="260.2285">CommentRepository</text>
            <line style="stroke:#181818;stroke-width:0.5;" x1="50" x2="350" y1="270.5" y2="270.5"/>
            <line style="stroke:#181818;stroke-width:0.5;" x1="50" x2="350" y1="278.5" y2="278.5"/>
            <ellipse cx="60" cy="292.8047" fill="#84BE84" rx="3" ry="3" style="stroke:#038048;stroke-width:1.0;"/>
            <text fill="#000000" font-family="sans-serif" font-size="14" lengthAdjust="spacing" textLength="276" x="69" y="297.0332">findByPostId(postId: Long) : List&lt;Comment&gt;</text>
            <ellipse cx="60" cy="310.4141" fill="#84BE84" rx="3" ry="3" style="stroke:#038048;stroke-width:1.0;"/>
            <text fill="#000000" font-family="sans-serif" font-size="14" lengthAdjust="spacing" textLength="203" x="69" y="314.6426">save(comment: Comment) : void</text>
        </g>
        <!--class ProvinceController-->
        <g id="elem_ProvinceController">
            <rect codeLine="78" fill="#F1F1F1" height="65.6094" id="ProvinceController" rx="2.5" ry="2.5" style="stroke:#181818;stroke-width:0.5;" width="256" x="993" y="50.5"/>
            <ellipse cx="1058.25" cy="66.5" fill="#ADD1B2" rx="11" ry="11" style="stroke:#181818;stroke-width:1.0;"/>
            <path d="M1061.0156,62.375 Q1061.1719,62.1563 1061.3594,62.0469 Q1061.5469,61.9375 1061.7656,61.9375 Q1062.1406,61.9375 1062.375,62.2031 Q1062.6094,62.4531 1062.6094,63.0625 L1062.6094,64.5156 Q1062.6094,65.125 1062.375,65.3906 Q1062.1406,65.6563 1061.7656,65.6563 Q1061.4219,65.6563 1061.2188,65.4531 Q1061.0156,65.2656 1060.9063,64.75 Q1060.8594,64.3906 1060.6719,64.2031 Q1060.3438,63.8281 1059.7344,63.6094 Q1059.125,63.3906 1058.5,63.3906 Q1057.7344,63.3906 1057.0938,63.7188 Q1056.4688,64.0469 1055.9688,64.7969 Q1055.4844,65.5469 1055.4844,66.5781 L1055.4844,67.6719 Q1055.4844,68.9063 1056.375,69.7344 Q1057.2656,70.5469 1058.8594,70.5469 Q1059.7969,70.5469 1060.4531,70.2969 Q1060.8438,70.1406 1061.2656,69.7031 Q1061.5313,69.4375 1061.6719,69.3594 Q1061.8281,69.2813 1062.0313,69.2813 Q1062.3594,69.2813 1062.6094,69.5469 Q1062.875,69.7969 1062.875,70.1406 Q1062.875,70.4844 1062.5313,70.8906 Q1062.0313,71.4688 1061.2344,71.7969 Q1060.1563,72.25 1058.8594,72.25 Q1057.3438,72.25 1056.1406,71.625 Q1055.1563,71.125 1054.4688,70.0625 Q1053.7813,68.9844 1053.7813,67.7031 L1053.7813,66.5469 Q1053.7813,65.2188 1054.3906,64.0781 Q1055.0156,62.9219 1056.1094,62.3125 Q1057.2031,61.6875 1058.4375,61.6875 Q1059.1719,61.6875 1059.8125,61.8594 Q1060.4688,62.0156 1061.0156,62.375 Z " fill="#000000"/>
            <text fill="#000000" font-family="sans-serif" font-size="14" lengthAdjust="spacing" textLength="117" x="1078.75" y="72.2285">ProvinceController</text>
            <line style="stroke:#181818;stroke-width:0.5;" x1="994" x2="1248" y1="82.5" y2="82.5"/>
            <line style="stroke:#181818;stroke-width:0.5;" x1="994" x2="1248" y1="90.5" y2="90.5"/>
            <ellipse cx="1004" cy="104.8047" fill="#84BE84" rx="3" ry="3" style="stroke:#038048;stroke-width:1.0;"/>
            <text fill="#000000" font-family="sans-serif" font-size="14" lengthAdjust="spacing" textLength="230" x="1013" y="109.0332">getProvinceById(id: Long) : Province</text>
        </g>
        <!--class UserController-->
        <g id="elem_UserController">
            <rect codeLine="82" fill="#F1F1F1" height="65.6094" id="UserController" rx="2.5" ry="2.5" style="stroke:#181818;stroke-width:0.5;" width="217" x="740.5" y="50.5"/>
            <ellipse cx="799.25" cy="66.5" fill="#ADD1B2" rx="11" ry="11" style="stroke:#181818;stroke-width:1.0;"/>
            <path d="M802.0156,62.375 Q802.1719,62.1563 802.3594,62.0469 Q802.5469,61.9375 802.7656,61.9375 Q803.1406,61.9375 803.375,62.2031 Q803.6094,62.4531 803.6094,63.0625 L803.6094,64.5156 Q803.6094,65.125 803.375,65.3906 Q803.1406,65.6563 802.7656,65.6563 Q802.4219,65.6563 802.2188,65.4531 Q802.0156,65.2656 801.9063,64.75 Q801.8594,64.3906 801.6719,64.2031 Q801.3438,63.8281 800.7344,63.6094 Q800.125,63.3906 799.5,63.3906 Q798.7344,63.3906 798.0938,63.7188 Q797.4688,64.0469 796.9688,64.7969 Q796.4844,65.5469 796.4844,66.5781 L796.4844,67.6719 Q796.4844,68.9063 797.375,69.7344 Q798.2656,70.5469 799.8594,70.5469 Q800.7969,70.5469 801.4531,70.2969 Q801.8438,70.1406 802.2656,69.7031 Q802.5313,69.4375 802.6719,69.3594 Q802.8281,69.2813 803.0313,69.2813 Q803.3594,69.2813 803.6094,69.5469 Q803.875,69.7969 803.875,70.1406 Q803.875,70.4844 803.5313,70.8906 Q803.0313,71.4688 802.2344,71.7969 Q801.1563,72.25 799.8594,72.25 Q798.3438,72.25 797.1406,71.625 Q796.1563,71.125 795.4688,70.0625 Q794.7813,68.9844 794.7813,67.7031 L794.7813,66.5469 Q794.7813,65.2188 795.3906,64.0781 Q796.0156,62.9219 797.1094,62.3125 Q798.2031,61.6875 799.4375,61.6875 Q800.1719,61.6875 800.8125,61.8594 Q801.4688,62.0156 802.0156,62.375 Z " fill="#000000"/>
            <text fill="#000000" font-family="sans-serif" font-size="14" lengthAdjust="spacing" textLength="91" x="819.75" y="72.2285">UserController</text>
            <line style="stroke:#181818;stroke-width:0.5;" x1="741.5" x2="956.5" y1="82.5" y2="82.5"/>
            <line style="stroke:#181818;stroke-width:0.5;" x1="741.5" x2="956.5" y1="90.5" y2="90.5"/>
            <ellipse cx="751.5" cy="104.8047" fill="#84BE84" rx="3" ry="3" style="stroke:#038048;stroke-width:1.0;"/>
            <text fill="#000000" font-family="sans-serif" font-size="14" lengthAdjust="spacing" textLength="191" x="760.5" y="109.0332">getUserProfile(id: Long) : User</text>
        </g>
        <!--class PostController-->
        <g id="elem_PostController">
            <rect codeLine="86" fill="#F1F1F1" height="83.2188" id="PostController" rx="2.5" ry="2.5" style="stroke:#181818;stroke-width:0.5;" width="293" x="412.5" y="42"/>
            <ellipse cx="509.75" cy="58" fill="#ADD1B2" rx="11" ry="11" style="stroke:#181818;stroke-width:1.0;"/>
            <path d="M512.5156,53.875 Q512.6719,53.6563 512.8594,53.5469 Q513.0469,53.4375 513.2656,53.4375 Q513.6406,53.4375 513.875,53.7031 Q514.1094,53.9531 514.1094,54.5625 L514.1094,56.0156 Q514.1094,56.625 513.875,56.8906 Q513.6406,57.1563 513.2656,57.1563 Q512.9219,57.1563 512.7188,56.9531 Q512.5156,56.7656 512.4063,56.25 Q512.3594,55.8906 512.1719,55.7031 Q511.8438,55.3281 511.2344,55.1094 Q510.625,54.8906 510,54.8906 Q509.2344,54.8906 508.5938,55.2188 Q507.9688,55.5469 507.4688,56.2969 Q506.9844,57.0469 506.9844,58.0781 L506.9844,59.1719 Q506.9844,60.4063 507.875,61.2344 Q508.7656,62.0469 510.3594,62.0469 Q511.2969,62.0469 511.9531,61.7969 Q512.3438,61.6406 512.7656,61.2031 Q513.0313,60.9375 513.1719,60.8594 Q513.3281,60.7813 513.5313,60.7813 Q513.8594,60.7813 514.1094,61.0469 Q514.375,61.2969 514.375,61.6406 Q514.375,61.9844 514.0313,62.3906 Q513.5313,62.9688 512.7344,63.2969 Q511.6563,63.75 510.3594,63.75 Q508.8438,63.75 507.6406,63.125 Q506.6563,62.625 505.9688,61.5625 Q505.2813,60.4844 505.2813,59.2031 L505.2813,58.0469 Q505.2813,56.7188 505.8906,55.5781 Q506.5156,54.4219 507.6094,53.8125 Q508.7031,53.1875 509.9375,53.1875 Q510.6719,53.1875 511.3125,53.3594 Q511.9688,53.5156 512.5156,53.875 Z " fill="#000000"/>
            <text fill="#000000" font-family="sans-serif" font-size="14" lengthAdjust="spacing" textLength="90" x="530.25" y="63.7285">PostController</text>
            <line style="stroke:#181818;stroke-width:0.5;" x1="413.5" x2="704.5" y1="74" y2="74"/>
            <line style="stroke:#181818;stroke-width:0.5;" x1="413.5" x2="704.5" y1="82" y2="82"/>
            <ellipse cx="423.5" cy="96.3047" fill="#84BE84" rx="3" ry="3" style="stroke:#038048;stroke-width:1.0;"/>
            <text fill="#000000" font-family="sans-serif" font-size="14" lengthAdjust="spacing" textLength="179" x="432.5" y="100.5332">createPost(post: Post) : void</text>
            <ellipse cx="423.5" cy="113.9141" fill="#84BE84" rx="3" ry="3" style="stroke:#038048;stroke-width:1.0;"/>
            <text fill="#000000" font-family="sans-serif" font-size="14" lengthAdjust="spacing" textLength="267" x="432.5" y="118.1426">getPostsByUser(userId: Long) : List&lt;Post&gt;</text>
        </g>
        <!--class CommentController-->
        <g id="elem_CommentController">
            <rect codeLine="91" fill="#F1F1F1" height="83.2188" id="CommentController" rx="2.5" ry="2.5" style="stroke:#181818;stroke-width:0.5;" width="355" x="22.5" y="42"/>
            <ellipse cx="134.75" cy="58" fill="#ADD1B2" rx="11" ry="11" style="stroke:#181818;stroke-width:1.0;"/>
            <path d="M137.5156,53.875 Q137.6719,53.6563 137.8594,53.5469 Q138.0469,53.4375 138.2656,53.4375 Q138.6406,53.4375 138.875,53.7031 Q139.1094,53.9531 139.1094,54.5625 L139.1094,56.0156 Q139.1094,56.625 138.875,56.8906 Q138.6406,57.1563 138.2656,57.1563 Q137.9219,57.1563 137.7188,56.9531 Q137.5156,56.7656 137.4063,56.25 Q137.3594,55.8906 137.1719,55.7031 Q136.8438,55.3281 136.2344,55.1094 Q135.625,54.8906 135,54.8906 Q134.2344,54.8906 133.5938,55.2188 Q132.9688,55.5469 132.4688,56.2969 Q131.9844,57.0469 131.9844,58.0781 L131.9844,59.1719 Q131.9844,60.4063 132.875,61.2344 Q133.7656,62.0469 135.3594,62.0469 Q136.2969,62.0469 136.9531,61.7969 Q137.3438,61.6406 137.7656,61.2031 Q138.0313,60.9375 138.1719,60.8594 Q138.3281,60.7813 138.5313,60.7813 Q138.8594,60.7813 139.1094,61.0469 Q139.375,61.2969 139.375,61.6406 Q139.375,61.9844 139.0313,62.3906 Q138.5313,62.9688 137.7344,63.2969 Q136.6563,63.75 135.3594,63.75 Q133.8438,63.75 132.6406,63.125 Q131.6563,62.625 130.9688,61.5625 Q130.2813,60.4844 130.2813,59.2031 L130.2813,58.0469 Q130.2813,56.7188 130.8906,55.5781 Q131.5156,54.4219 132.6094,53.8125 Q133.7031,53.1875 134.9375,53.1875 Q135.6719,53.1875 136.3125,53.3594 Q136.9688,53.5156 137.5156,53.875 Z " fill="#000000"/>
            <text fill="#000000" font-family="sans-serif" font-size="14" lengthAdjust="spacing" textLength="122" x="155.25" y="63.7285">CommentController</text>
            <line style="stroke:#181818;stroke-width:0.5;" x1="23.5" x2="376.5" y1="74" y2="74"/>
            <line style="stroke:#181818;stroke-width:0.5;" x1="23.5" x2="376.5" y1="82" y2="82"/>
            <ellipse cx="33.5" cy="96.3047" fill="#84BE84" rx="3" ry="3" style="stroke:#038048;stroke-width:1.0;"/>
            <text fill="#000000" font-family="sans-serif" font-size="14" lengthAdjust="spacing" textLength="257" x="42.5" y="100.5332">addComment(comment: Comment) : void</text>
            <ellipse cx="33.5" cy="113.9141" fill="#84BE84" rx="3" ry="3" style="stroke:#038048;stroke-width:1.0;"/>
            <text fill="#000000" font-family="sans-serif" font-size="14" lengthAdjust="spacing" textLength="329" x="42.5" y="118.1426">getCommentsByPost(postId: Long) : List&lt;Comment&gt;</text>
        </g>
        <!--link User to Post-->
        <g id="link_User_Post">
            <path codeLine="97" d="M1571,357.12 C1571,381.79 1571,409.32 1571,434.59 " fill="none" id="User-Post" style="stroke:#181818;stroke-width:1.0;"/>
            <text fill="#000000" font-family="sans-serif" font-size="13" lengthAdjust="spacing" textLength="34" x="1572" y="401.4951">writes</text>
            <text fill="#000000" font-family="sans-serif" font-size="13" lengthAdjust="spacing" textLength="7" x="1563.6883" y="378.2271">1</text>
            <text fill="#000000" font-family="sans-serif" font-size="13" lengthAdjust="spacing" textLength="20" x="1550.1406" y="424.0184">0..*</text>
        </g>
        <!--link Post to Comment-->
        <g id="link_Post_Comment">
            <path codeLine="98" d="M1571,606.26 C1571,631.56 1571,659.14 1571,683.85 " fill="none" id="Post-Comment" style="stroke:#181818;stroke-width:1.0;"/>
            <text fill="#000000" font-family="sans-serif" font-size="13" lengthAdjust="spacing" textLength="21" x="1572" y="650.4951">has</text>
            <text fill="#000000" font-family="sans-serif" font-size="13" lengthAdjust="spacing" textLength="7" x="1563.6992" y="627.8163">1</text>
            <text fill="#000000" font-family="sans-serif" font-size="13" lengthAdjust="spacing" textLength="20" x="1550.0469" y="673.2624">0..*</text>
        </g>
        <!--link Province to Post-->
        <g id="link_Province_Post">
            <path codeLine="99" d="M1704.45,357.12 C1684.17,381.79 1661.55,409.32 1640.78,434.59 " fill="none" id="Province-Post" style="stroke:#181818;stroke-width:1.0;"/>
            <text fill="#000000" font-family="sans-serif" font-size="13" lengthAdjust="spacing" textLength="21" x="1675" y="401.4951">has</text>
            <text fill="#000000" font-family="sans-serif" font-size="13" lengthAdjust="spacing" textLength="7" x="1691.5674" y="378.2271">1</text>
            <text fill="#000000" font-family="sans-serif" font-size="13" lengthAdjust="spacing" textLength="20" x="1625.9173" y="424.0184">0..*</text>
        </g>
        <!--link ProvinceController to ProvinceRepository-->
        <g id="link_ProvinceController_ProvinceRepository">
            <path codeLine="100" d="M1110.93,116.62 C1100.47,149.96 1084.09,202.2 1072.74,238.39 " fill="none" id="ProvinceController-ProvinceRepository" style="stroke:#181818;stroke-width:1.0;"/>
            <text fill="#000000" font-family="sans-serif" font-size="13" lengthAdjust="spacing" textLength="28" x="1098" y="169.4951">uses</text>
            <text fill="#000000" font-family="sans-serif" font-size="13" lengthAdjust="spacing" textLength="7" x="1101.5128" y="137.5057">1</text>
            <text fill="#000000" font-family="sans-serif" font-size="13" lengthAdjust="spacing" textLength="7" x="1067.2704" y="227.6795">1</text>
        </g>
        <!--link UserController to UserRepository-->
        <g id="link_UserController_UserRepository">
            <path codeLine="101" d="M846.52,116.62 C843.95,149.96 839.92,202.2 837.13,238.39 " fill="none" id="UserController-UserRepository" style="stroke:#181818;stroke-width:1.0;"/>
            <text fill="#000000" font-family="sans-serif" font-size="13" lengthAdjust="spacing" textLength="28" x="844" y="169.4951">uses</text>
            <text fill="#000000" font-family="sans-serif" font-size="13" lengthAdjust="spacing" textLength="7" x="838.4548" y="137.5057">1</text>
            <text fill="#000000" font-family="sans-serif" font-size="13" lengthAdjust="spacing" textLength="7" x="830.0687" y="227.6795">1</text>
        </g>
        <!--link PostController to PostRepository-->
        <g id="link_PostController_PostRepository">
            <path codeLine="102" d="M559,125.27 C559,158.47 559,205.1 559,238.28 " fill="none" id="PostController-PostRepository" style="stroke:#181818;stroke-width:1.0;"/>
            <text fill="#000000" font-family="sans-serif" font-size="13" lengthAdjust="spacing" textLength="28" x="560" y="169.4951">uses</text>
            <text fill="#000000" font-family="sans-serif" font-size="13" lengthAdjust="spacing" textLength="7" x="551.4422" y="146.7078">1</text>
            <text fill="#000000" font-family="sans-serif" font-size="13" lengthAdjust="spacing" textLength="7" x="551.4203" y="227.5512">1</text>
        </g>
        <!--link CommentController to CommentRepository-->
        <g id="link_CommentController_CommentRepository">
            <path codeLine="103" d="M200,125.27 C200,158.47 200,205.1 200,238.28 " fill="none" id="CommentController-CommentRepository" style="stroke:#181818;stroke-width:1.0;"/>
            <text fill="#000000" font-family="sans-serif" font-size="13" lengthAdjust="spacing" textLength="28" x="201" y="169.4951">uses</text>
            <text fill="#000000" font-family="sans-serif" font-size="13" lengthAdjust="spacing" textLength="7" x="192.4422" y="146.7078">1</text>
            <text fill="#000000" font-family="sans-serif" font-size="13" lengthAdjust="spacing" textLength="7" x="192.4203" y="227.5512">1</text>
        </g>
        <!--link ProvinceView to Province-->
        <g id="link_ProvinceView_Province">
            <path codeLine="104" d="M1751.98,125.27 C1754.18,147.78 1756.98,176.45 1759.57,202.92 " fill="none" id="ProvinceView-Province" style="stroke:#181818;stroke-width:1.0;"/>
            <text fill="#000000" font-family="sans-serif" font-size="13" lengthAdjust="spacing" textLength="48" x="1757" y="169.4951">displays</text>
            <text fill="#000000" font-family="sans-serif" font-size="13" lengthAdjust="spacing" textLength="7" x="1745.0565" y="146.7078">1</text>
            <text fill="#000000" font-family="sans-serif" font-size="13" lengthAdjust="spacing" textLength="7" x="1751.4941" y="192.0743">1</text>
        </g>
        <!--link UserProfileView to User-->
        <g id="link_UserProfileView_User">
            <path codeLine="105" d="M1454.03,125.27 C1471.15,147.78 1492.97,176.45 1513.11,202.92 " fill="none" id="UserProfileView-User" style="stroke:#181818;stroke-width:1.0;"/>
            <text fill="#000000" font-family="sans-serif" font-size="13" lengthAdjust="spacing" textLength="48" x="1489" y="169.4951">displays</text>
            <text fill="#000000" font-family="sans-serif" font-size="13" lengthAdjust="spacing" textLength="7" x="1451.4176" y="146.7078">1</text>
            <text fill="#000000" font-family="sans-serif" font-size="13" lengthAdjust="spacing" textLength="7" x="1500.0669" y="192.0743">1</text>
        </g>
        <!--link PostView to Post-->
        <g id="link_PostView_Post">
            <path codeLine="106" d="M1364.52,321.73 C1401.61,357.25 1456.17,409.51 1499.89,451.39 " fill="none" id="PostView-Post" style="stroke:#181818;stroke-width:1.0;"/>
            <text fill="#000000" font-family="sans-serif" font-size="13" lengthAdjust="spacing" textLength="48" x="1447" y="401.4951">displays</text>
            <text fill="#000000" font-family="sans-serif" font-size="13" lengthAdjust="spacing" textLength="7" x="1363.7388" y="343.1614">1</text>
            <text fill="#000000" font-family="sans-serif" font-size="13" lengthAdjust="spacing" textLength="7" x="1485.1958" y="440.9376">1</text>
        </g>
        <!--SRC=[hLO_ZzCm5D_xAQmiv41tWZL2bQw7a2hTeGfKc4tifXQk7MotLOLkPcPcOc9af-DzadmJR2TfxDX9EKI6DFNxlN_-lVVi4kQVO851yW5_l8Db0hvCW7xiwmbOhAlVFnbuBJXJc26xcbCe9LW8lYCin-y9tZSwvdc6Y2mfF6XJwGN8m8uJr0dbckzRnJbRyRHi_cGdUvxI_SJnk9HOQDIAq26d3YBTwk_CwiJ3i5WkbKnByyx0BP7gfLcP3eTWn0E-ZSYQoYmgT0eHkk6R3MOgpUrkQkGx9GWhOlvEMp_J_CHttWs286tZbhEYMs9mWq7hebiMk22SHGGbBxSKgbf8c78on38Nf5HnlG8hI-M5BmkeEnEkuMiWv5ARs7E18gBLbj8tSIsyWOJ6usrhn8Jir4oSxx-8UnukDnH7_9EDRhUbY8MM2mmLHjT6xPN-wajiZOMLXJ35CQ6NIbDxPx8n1Jp_3qaEP-AqmKYVDIN-5kk0YEBYuCQz8WpD3dEK4bH7P0orAZxicbBhfcxk1ZAD5-WZd1cuCqxWRd3U1ENqc9Gql0zPMYRIcf0EsWslGUR772yixMdDVizgepxjvPlNorbh_ZoPDxfQ1AVK7mLrErh0EAS1NuFst6CWobf0IjoKqtHZWzraO8wGcfn_eIRktZimHZQx3QAHoLbt5esJUJfgxghZDm8-Ro43w-hu5HIaElw287_uaGDQ7R-N5cU7UF8Y0PUN87b-TVKqgUTZ1fAz80hBnCBicWzhPuz6hc4BQq-nkCK0v-nHgw5_8eD2AsiA6krUdJYQlOxtj7ebuVhpEzZJ2ibq5CCcz3swjwb8VWRTN3ISpDpRK2-rKE5qT-cbuoCdzvC_]-->
    </g>
</svg>
